<?xml version="1.0" encoding="UTF-8" standalone="no"?>
<!DOCTYPE svg PUBLIC "-//W3C//DTD SVG 1.1//EN"
 "http://www.w3.org/Graphics/SVG/1.1/DTD/svg11.dtd">
<!-- Generated by graphviz version 2.40.1 (20161225.0304)
 -->
<!-- Title: %3 Pages: 1 -->
<svg width="483pt" height="404pt"
 viewBox="0.00 0.00 483.07 404.00" xmlns="http://www.w3.org/2000/svg" xmlns:xlink="http://www.w3.org/1999/xlink">
<g id="graph0" class="graph" transform="scale(1 1) rotate(0) translate(4 400)">
<title>%3</title>
<polygon fill="#ffffff" stroke="transparent" points="-4,4 -4,-400 479.075,-400 479.075,4 -4,4"/>
<!-- [root] aws_instance.apache -->
<g id="node1" class="node">
<title>[root] aws_instance.apache</title>
<polygon fill="none" stroke="#000000" points="343.7843,-180 213.7843,-180 213.7843,-144 343.7843,-144 343.7843,-180"/>
<text text-anchor="middle" x="278.7843" y="-158.3" font-family="Times,serif" font-size="14.00" fill="#000000">aws_instance.apache</text>
</g>
<!-- [root] data.aws_ami.baseami -->
<g id="node2" class="node">
<title>[root] data.aws_ami.baseami</title>
<polygon fill="none" stroke="#000000" points="283.7843,-108 143.7843,-108 143.7843,-72 283.7843,-72 283.7843,-108"/>
<text text-anchor="middle" x="213.7843" y="-86.3" font-family="Times,serif" font-size="14.00" fill="#000000">data.aws_ami.baseami</text>
</g>
<!-- [root] aws_instance.apache&#45;&gt;[root] data.aws_ami.baseami -->
<g id="edge1" class="edge">
<title>[root] aws_instance.apache&#45;&gt;[root] data.aws_ami.baseami</title>
<path fill="none" stroke="#000000" d="M262.3821,-143.8314C254.7428,-135.3694 245.516,-125.1489 237.1636,-115.8971"/>
<polygon fill="#000000" stroke="#000000" points="239.7064,-113.4906 230.4074,-108.4133 234.5105,-118.1813 239.7064,-113.4906"/>
</g>
<!-- [root] var.ec2count -->
<g id="node5" class="node">
<title>[root] var.ec2count</title>
<polygon fill="none" stroke="#000000" points="381.7843,-108 301.7843,-108 301.7843,-72 387.7843,-72 387.7843,-102 381.7843,-108"/>
<polyline fill="none" stroke="#000000" points="381.7843,-108 381.7843,-102 "/>
<polyline fill="none" stroke="#000000" points="387.7843,-102 381.7843,-102 "/>
<text text-anchor="middle" x="344.7843" y="-86.3" font-family="Times,serif" font-size="14.00" fill="#000000">var.ec2count</text>
</g>
<!-- [root] aws_instance.apache&#45;&gt;[root] var.ec2count -->
<g id="edge2" class="edge">
<title>[root] aws_instance.apache&#45;&gt;[root] var.ec2count</title>
<path fill="none" stroke="#000000" d="M295.4389,-143.8314C303.1957,-135.3694 312.5645,-125.1489 321.0453,-115.8971"/>
<polygon fill="#000000" stroke="#000000" points="323.7283,-118.1499 327.9055,-108.4133 318.5682,-113.4198 323.7283,-118.1499"/>
</g>
<!-- [root] provider.aws -->
<g id="node4" class="node">
<title>[root] provider.aws</title>
<polygon fill="none" stroke="#000000" points="213.7843,-36 133.8509,-18 213.7843,0 293.7177,-18 213.7843,-36"/>
<text text-anchor="middle" x="213.7843" y="-14.3" font-family="Times,serif" font-size="14.00" fill="#000000">provider.aws</text>
</g>
<!-- [root] data.aws_ami.baseami&#45;&gt;[root] provider.aws -->
<g id="edge3" class="edge">
<title>[root] data.aws_ami.baseami&#45;&gt;[root] provider.aws</title>
<path fill="none" stroke="#000000" d="M213.7843,-71.8314C213.7843,-64.131 213.7843,-54.9743 213.7843,-46.4166"/>
<polygon fill="#000000" stroke="#000000" points="217.2844,-46.4132 213.7843,-36.4133 210.2844,-46.4133 217.2844,-46.4132"/>
</g>
<!-- [root] output.dns -->
<g id="node3" class="node">
<title>[root] output.dns</title>
<polygon fill="none" stroke="#000000" points="229.7843,-252 161.7843,-252 161.7843,-216 235.7843,-216 235.7843,-246 229.7843,-252"/>
<polyline fill="none" stroke="#000000" points="229.7843,-252 229.7843,-246 "/>
<polyline fill="none" stroke="#000000" points="235.7843,-246 229.7843,-246 "/>
<text text-anchor="middle" x="198.7843" y="-230.3" font-family="Times,serif" font-size="14.00" fill="#000000">output.dns</text>
</g>
<!-- [root] output.dns&#45;&gt;[root] aws_instance.apache -->
<g id="edge5" class="edge">
<title>[root] output.dns&#45;&gt;[root] aws_instance.apache</title>
<path fill="none" stroke="#000000" d="M218.9717,-215.8314C228.6357,-207.1337 240.3639,-196.5783 250.866,-187.1265"/>
<polygon fill="#000000" stroke="#000000" points="253.5118,-189.454 258.6034,-180.1628 248.829,-184.251 253.5118,-189.454"/>
</g>
<!-- [root] meta.count&#45;boundary (EachMode fixup) -->
<g id="node6" class="node">
<title>[root] meta.count&#45;boundary (EachMode fixup)</title>
<ellipse fill="none" stroke="#000000" cx="176.7843" cy="-306" rx="176.5689" ry="18"/>
<text text-anchor="middle" x="176.7843" y="-302.3" font-family="Times,serif" font-size="14.00" fill="#000000">[root] meta.count&#45;boundary (EachMode fixup)</text>
</g>
<!-- [root] meta.count&#45;boundary (EachMode fixup)&#45;&gt;[root] output.dns -->
<g id="edge4" class="edge">
<title>[root] meta.count&#45;boundary (EachMode fixup)&#45;&gt;[root] output.dns</title>
<path fill="none" stroke="#000000" d="M182.3358,-287.8314C184.7146,-280.0463 187.5481,-270.7729 190.1876,-262.1347"/>
<polygon fill="#000000" stroke="#000000" points="193.583,-262.9996 193.158,-252.4133 186.8886,-260.954 193.583,-262.9996"/>
</g>
<!-- [root] provider.aws (close) -->
<g id="node7" class="node">
<title>[root] provider.aws (close)</title>
<ellipse fill="none" stroke="#000000" cx="369.7843" cy="-234" rx="105.0817" ry="18"/>
<text text-anchor="middle" x="369.7843" y="-230.3" font-family="Times,serif" font-size="14.00" fill="#000000">[root] provider.aws (close)</text>
</g>
<!-- [root] provider.aws (close)&#45;&gt;[root] aws_instance.apache -->
<g id="edge6" class="edge">
<title>[root] provider.aws (close)&#45;&gt;[root] aws_instance.apache</title>
<path fill="none" stroke="#000000" d="M347.2899,-216.2022C335.8918,-207.1839 321.8797,-196.0975 309.5042,-186.3059"/>
<polygon fill="#000000" stroke="#000000" points="311.6659,-183.5532 301.652,-180.0931 307.3225,-189.0428 311.6659,-183.5532"/>
</g>
<!-- [root] root -->
<g id="node8" class="node">
<title>[root] root</title>
<ellipse fill="none" stroke="#000000" cx="278.7843" cy="-378" rx="47.3916" ry="18"/>
<text text-anchor="middle" x="278.7843" y="-374.3" font-family="Times,serif" font-size="14.00" fill="#000000">[root] root</text>
</g>
<!-- [root] root&#45;&gt;[root] meta.count&#45;boundary (EachMode fixup) -->
<g id="edge7" class="edge">
<title>[root] root&#45;&gt;[root] meta.count&#45;boundary (EachMode fixup)</title>
<path fill="none" stroke="#000000" d="M256.1472,-362.0209C242.8022,-352.6009 225.6583,-340.4993 210.7214,-329.9556"/>
<polygon fill="#000000" stroke="#000000" points="212.4154,-326.8672 202.2273,-323.9597 208.3786,-332.586 212.4154,-326.8672"/>
</g>
<!-- [root] root&#45;&gt;[root] provider.aws (close) -->
<g id="edge8" class="edge">
<title>[root] root&#45;&gt;[root] provider.aws (close)</title>
<path fill="none" stroke="#000000" d="M312.6742,-365.0819C330.7304,-356.3388 351.4918,-342.9013 362.7843,-324 373.7879,-305.5823 375.0249,-281.1265 373.7941,-262.3568"/>
<polygon fill="#000000" stroke="#000000" points="377.2723,-261.958 372.8714,-252.3205 370.3017,-262.599 377.2723,-261.958"/>
</g>
</g>
</svg>
